<svg xmlns="http://www.w3.org/2000/svg" viewBox="0 0 64 64" role="img" aria-label="BFP Benguet">
  <rect width="64" height="64" rx="12" fill="#7f1d1d"/>
  <path d="M32 8 52 16v15c0 13.5-8.2 21.8-20 25-11.8-3.2-20-11.5-20-25V16l20-8Z" fill="#f8fafc"/>
  <path d="M32 12 47 18v13c0 10.2-5.7 17-15 20-9.3-3-15-9.8-15-20V18l15-6Z" fill="#b91c1c"/>
  <path d="M34.7 46c6.5-2.1 10.2-7.3 9.2-13.1-.6-3.6-2.9-6.8-6.4-9.6.4 3.8-.6 6.5-3 8-1.6-5.5-5.3-9.8-10.7-13 1 5.3-.8 8.2-2.9 11.4-1.5 2.4-2.9 4.8-2.5 8 .6 4.7 4.9 8.1 10.8 8.8-2.6-1.8-3.8-4.8-2.7-7.6.8-2.2 2.7-3.6 4.5-5.5.2 3.6 1.5 5.6 3.7 7.2 1.5 1.1 1.6 3.4 0 5.4Z" fill="#facc15"/>
</svg>
